<?xml version="1.0" encoding="UTF-8"?>
<svg id="Layer_2" data-name="Layer 2" xmlns="http://www.w3.org/2000/svg" width="298.25" height="47.28" viewBox="0 0 298.25 47.28">
  <defs>
    <style>
      .cls-1 {
        fill-rule: evenodd;
      }

      .cls-1, .cls-2 {
        fill: #001c17;
      }
    </style>
  </defs>
  <g id="Capa_1" data-name="Capa 1">
    <g>
      <g>
        <path class="cls-2" d="M209.82,43.19c-4.56,0-8.08-1.59-10.57-4.76-2.49-3.17-3.73-7.88-3.73-14.12,0-6.2,1.24-10.94,3.73-14.2,2.49-3.26,6.01-4.89,10.57-4.89,2.94,0,5.42.69,7.44,2.08,2.01,1.39,3.58,3.29,4.71,5.7l-2.58,1.52c-.81-2-2.02-3.58-3.65-4.76-1.63-1.17-3.6-1.76-5.91-1.76-3.44,0-6.12,1.23-8.04,3.69-1.93,2.46-2.89,5.98-2.89,10.55v4.17c0,4.54.96,8,2.89,10.39,1.93,2.39,4.61,3.59,8.04,3.59,2.45,0,4.5-.62,6.15-1.87,1.65-1.24,2.87-2.92,3.68-5.02l2.58,1.52c-1.09,2.52-2.68,4.51-4.78,5.97-2.1,1.45-4.64,2.18-7.62,2.18Z"/>
        <path class="cls-2" d="M239.1,43.19c-1.79,0-3.4-.32-4.84-.95-1.44-.63-2.66-1.55-3.68-2.76-1.02-1.21-1.81-2.69-2.37-4.44-.56-1.75-.84-3.73-.84-5.94,0-2.21.28-4.18.84-5.91.56-1.74,1.35-3.21,2.37-4.42,1.02-1.21,2.24-2.14,3.68-2.79,1.44-.65,3.05-.97,4.84-.97,1.79,0,3.4.32,4.84.97,1.44.65,2.66,1.58,3.68,2.79,1.02,1.21,1.81,2.68,2.37,4.42.56,1.74.84,3.71.84,5.91,0,2.21-.28,4.19-.84,5.94-.56,1.75-1.35,3.23-2.37,4.44-1.02,1.21-2.24,2.13-3.68,2.76-1.44.63-3.05.95-4.84.95ZM239.1,40.51c2.63,0,4.71-.82,6.23-2.47,1.52-1.65,2.29-4.07,2.29-7.26v-3.36c0-3.15-.76-5.56-2.29-7.23-1.52-1.66-3.6-2.5-6.23-2.5-2.63,0-4.71.82-6.23,2.47-1.52,1.65-2.29,4.07-2.29,7.26v3.36c0,3.15.76,5.57,2.29,7.23,1.52,1.67,3.6,2.5,6.23,2.5Z"/>
        <path class="cls-2" d="M258.45,42.56V15.64s3,0,3,0v4.26h.16c.6-1.4,1.52-2.57,2.79-3.5,1.26-.93,2.98-1.39,5.15-1.39,2.87,0,5.11.89,6.7,2.66,1.59,1.77,2.39,4.3,2.39,7.6v17.3s-3,0-3,0v-16.77c0-2.73-.59-4.77-1.76-6.1-1.17-1.33-2.88-2-5.13-2-.95,0-1.86.12-2.73.37-.88.25-1.66.61-2.34,1.1-.68.49-1.23,1.11-1.63,1.87-.4.75-.6,1.62-.6,2.6v18.93s-3,0-3,0Z"/>
        <path class="cls-2" d="M289.31,18.21h-4.63s0-2.58,0-2.58h4.63v-7.52c0-1.37.34-2.45,1.02-3.26.68-.81,1.74-1.21,3.18-1.21h4.73s0,2.58,0,2.58h-5.94v9.41h5.94s0,2.58,0,2.58h-5.94s0,24.34,0,24.34h-3s0-24.34,0-24.34Z"/>
      </g>
      <g>
        <path class="cls-2" d="M49.47,42.66V4.81s17.45,0,17.45,0c3.76,0,6.67,1.11,8.73,3.32,2.06,2.21,3.08,5.18,3.08,8.9,0,3.72-1.03,6.69-3.08,8.9-2.06,2.21-4.97,3.32-8.73,3.32h-10.88s0,13.42,0,13.42h-6.57ZM56.05,23.43h10.47c1.67,0,2.97-.43,3.9-1.3.93-.86,1.4-2.1,1.4-3.72v-2.77c0-1.61-.46-2.85-1.4-3.72-.93-.86-2.23-1.3-3.9-1.3h-10.47s0,12.8,0,12.8Z"/>
        <path class="cls-2" d="M121.28,42.66c-1.67,0-2.95-.47-3.84-1.43-.89-.95-1.44-2.16-1.63-3.64h-.29c-.58,1.9-1.65,3.34-3.2,4.31-1.55.97-3.43,1.45-5.64,1.45-3.14,0-5.56-.81-7.24-2.44s-2.53-3.82-2.53-6.57c0-3.03,1.1-5.29,3.29-6.81,2.19-1.51,5.4-2.27,9.63-2.27h5.47v-2.56c0-1.86-.5-3.3-1.51-4.31-1.01-1.01-2.58-1.51-4.71-1.51-1.78,0-3.24.39-4.36,1.16-1.13.78-2.08,1.77-2.85,2.97l-3.78-3.43c1.01-1.71,2.42-3.11,4.25-4.22,1.82-1.11,4.21-1.66,7.16-1.66,3.92,0,6.92.91,9.02,2.73,2.09,1.82,3.14,4.44,3.14,7.85v15.18h3.2s0,5.18,0,5.18h-3.55ZM108.48,38.53c1.98,0,3.61-.44,4.89-1.31,1.28-.87,1.92-2.05,1.92-3.52v-4.36h-5.35c-4.38,0-6.57,1.36-6.57,4.07v1.05c0,1.36.46,2.38,1.37,3.05.91.68,2.16,1.02,3.75,1.02Z"/>
        <path class="cls-2" d="M145.64,42.66v-5.12s16.23-19.96,16.23-19.96h-15.71s0-5.26,0-5.26l23.21.08v4.89s-16.46,20.19-16.46,20.19h16.87s0,5.18,0,5.18h-24.14Z"/>
        <path class="cls-2" d="M86.3,42.68c-2.08,0-3.77-1.69-3.77-3.77v-2.52s0-31.54,0-31.54h6.34s0,32.64,0,32.64h4.19s0,5.18,0,5.18h-4.07s-2.68.01-2.68.01Z"/>
        <circle class="cls-2" cx="176.31" cy="4.84" r="3.77"/>
        <path class="cls-2" d="M125.39,12.33h-.56v5.26h4.85s0,18.5,0,18.5c0,2.09.56,3.71,1.69,4.86,1.12,1.14,2.79,1.72,5,1.72h5.53v-5.18h-5.88s0-19.9,0-19.9h6.34v-5.26h-6.34s0-7.52,0-7.52h-5.7s0,2.64,0,2.64v1.12c0,2.08-1.68,3.76-3.76,3.76h-1.18Z"/>
        <path class="cls-2" d="M173.14,12.41h6.34s0,30.25,0,30.25h-6.34s0-30.25,0-30.25Z"/>
        <path class="cls-1" d="M18.28,2.22L2.22,18.28c-2.96,2.96-2.96,7.75,0,10.71l16.07,16.07c2.96,2.96,7.75,2.96,10.71,0l5.36-5.36-5.36-5.36-5.36,5.36L7.57,23.64,23.64,7.57l10.71,10.71-10.71,10.71,5.36,5.36,10.71-10.71c2.96-2.96,2.96-7.75,0-10.71L28.99,2.22c-2.96-2.96-7.75-2.96-10.71,0Z"/>
      </g>
    </g>
  </g>
</svg>